<svg width="26" height="26" xmlns="http://www.w3.org/2000/svg" xmlns:xlink="http://www.w3.org/1999/xlink" overflow="hidden"><g transform="translate(-627 -347)"><path d="M628.5 360.5C628.5 353.873 633.873 348.5 640.5 348.5 647.128 348.5 652.5 353.873 652.5 360.5 652.5 367.127 647.128 372.5 640.5 372.5 633.873 372.5 628.5 367.127 628.5 360.5Z" stroke="#000000" stroke-width="0.333333" stroke-miterlimit="8" fill="#FFFFFF" fill-rule="evenodd"/><path d="M632.143 351.5 648.858 351.5 648.985 351.591C651.157 353.871 652.5 357.021 652.5 360.5 652.5 363.979 651.157 367.13 648.985 369.41L648.858 369.5 632.143 369.5 632.015 369.41C629.843 367.13 628.5 363.979 628.5 360.5 628.5 357.021 629.843 353.871 632.015 351.591Z" stroke="#000000" stroke-width="0.333333" stroke-miterlimit="8" fill="#BF9000" fill-rule="evenodd"/><path d="M632.5 360.5C632.5 356.082 636.082 352.5 640.5 352.5 644.918 352.5 648.5 356.082 648.5 360.5 648.5 364.918 644.918 368.5 640.5 368.5 636.082 368.5 632.5 364.918 632.5 360.5Z" stroke="#000000" stroke-width="0.333333" stroke-miterlimit="8" fill="#FFFFFF" fill-rule="evenodd"/><path d="M640.868 356.29 643.653 356.29 643.653 356.731 641.29 356.731 641.22 358.251C641.214 358.365 641.199 358.589 641.173 358.923 641.293 358.727 641.461 358.575 641.677 358.466 641.869 358.369 642.075 358.321 642.294 358.321 642.776 358.321 643.165 358.509 643.462 358.884 643.727 359.222 643.86 359.651 643.86 360.169 643.86 360.815 643.673 361.319 643.298 361.681 642.99 361.98 642.613 362.13 642.165 362.13 641.379 362.13 640.845 361.774 640.563 361.063L641.052 360.856C641.247 361.416 641.618 361.696 642.165 361.696 642.545 361.696 642.841 361.545 643.052 361.243 643.239 360.975 643.333 360.625 643.333 360.192 643.333 359.708 643.221 359.338 642.997 359.083 642.802 358.864 642.543 358.755 642.22 358.755 641.959 358.755 641.73 358.834 641.532 358.993 641.36 359.134 641.233 359.321 641.149 359.556L640.731 359.489ZM637.188 356.208 637.599 356.208 637.599 361.598 638.677 361.598 638.677 362.024 635.95 362.024 635.95 361.598 637.102 361.598 637.102 356.751C636.764 356.983 636.372 357.183 635.927 357.352L635.837 356.888C636.28 356.739 636.73 356.513 637.188 356.208Z" stroke="#000000" stroke-linejoin="round" stroke-miterlimit="10" fill-rule="evenodd"/><text fill="#000000" fill-opacity="0" font-family="Arial,Arial_MSFontService,sans-serif" font-size="5.92188" x="635.837" y="361.389">15</text></g></svg>