<svg width="26" height="26" xmlns="http://www.w3.org/2000/svg" xmlns:xlink="http://www.w3.org/1999/xlink" overflow="hidden"><g transform="translate(-627 -347)"><path d="M628.5 360.5C628.5 353.873 633.873 348.5 640.5 348.5 647.128 348.5 652.5 353.873 652.5 360.5 652.5 367.127 647.128 372.5 640.5 372.5 633.873 372.5 628.5 367.127 628.5 360.5Z" stroke="#000000" stroke-width="0.333333" stroke-miterlimit="8" fill="#FFFFFF" fill-rule="evenodd"/><path d="M632.143 351.5 648.858 351.5 648.985 351.591C651.157 353.871 652.5 357.021 652.5 360.5 652.5 363.979 651.157 367.13 648.985 369.41L648.858 369.5 632.143 369.5 632.015 369.41C629.843 367.13 628.5 363.979 628.5 360.5 628.5 357.021 629.843 353.871 632.015 351.591Z" stroke="#000000" stroke-width="0.333333" stroke-miterlimit="8" fill="#FFFF00" fill-rule="evenodd"/><path d="M632.5 360.5C632.5 356.082 636.082 352.5 640.5 352.5 644.918 352.5 648.5 356.082 648.5 360.5 648.5 364.918 644.918 368.5 640.5 368.5 636.082 368.5 632.5 364.918 632.5 360.5Z" stroke="#000000" stroke-width="0.333333" stroke-miterlimit="8" fill="#FFFFFF" fill-rule="evenodd"/><path d="M639.745 356.626C639.38 356.626 639.1 356.779 638.905 357.087 638.733 357.352 638.647 357.705 638.647 358.145 638.647 358.588 638.759 358.936 638.983 359.188 639.176 359.404 639.419 359.513 639.713 359.513 640.216 359.513 640.626 359.203 640.944 358.583 640.931 357.911 640.808 357.407 640.577 357.071 640.374 356.774 640.096 356.626 639.745 356.626ZM639.729 356.192C640.305 356.192 640.742 356.438 641.042 356.931 641.318 357.386 641.456 358.031 641.456 358.864 641.456 361.041 640.834 362.13 639.592 362.13 638.986 362.13 638.553 361.891 638.295 361.415L638.768 361.169C638.95 361.52 639.225 361.696 639.592 361.696 640.051 361.696 640.39 361.473 640.612 361.028 640.823 360.606 640.941 359.959 640.967 359.087 640.655 359.66 640.215 359.946 639.647 359.946 639.181 359.946 638.803 359.76 638.514 359.388 638.256 359.057 638.127 358.643 638.127 358.145 638.127 357.52 638.298 357.026 638.639 356.661 638.928 356.348 639.292 356.192 639.729 356.192Z" stroke="#000000" stroke-linejoin="round" stroke-miterlimit="10" fill-rule="evenodd"/><text fill="#000000" fill-opacity="0" font-family="Arial,Arial_MSFontService,sans-serif" font-size="5.9375" x="638.127" y="361.388">9</text></g></svg>