<svg width="26" height="26" xmlns="http://www.w3.org/2000/svg" xmlns:xlink="http://www.w3.org/1999/xlink" overflow="hidden"><g transform="translate(-627 -347)"><path d="M628.5 360.5C628.5 353.873 633.873 348.5 640.5 348.5 647.128 348.5 652.5 353.873 652.5 360.5 652.5 367.127 647.128 372.5 640.5 372.5 633.873 372.5 628.5 367.127 628.5 360.5Z" stroke="#000000" stroke-width="0.333333" stroke-miterlimit="8" fill-rule="evenodd"/><path d="M632.5 360.5C632.5 356.082 636.082 352.5 640.5 352.5 644.918 352.5 648.5 356.082 648.5 360.5 648.5 364.918 644.918 368.5 640.5 368.5 636.082 368.5 632.5 364.918 632.5 360.5Z" stroke="#000000" stroke-width="0.333333" stroke-miterlimit="8" fill="#FFFFFF" fill-rule="evenodd"/><path d="M639.768 359.231C639.305 359.44 638.983 359.654 638.803 359.876 638.647 360.069 638.569 360.299 638.569 360.567 638.569 360.942 638.695 361.231 638.948 361.434 639.167 361.614 639.457 361.704 639.819 361.704 640.241 361.704 640.564 361.589 640.788 361.36 640.978 361.165 641.073 360.903 641.073 360.575 641.073 360.273 640.978 360.024 640.788 359.829 640.613 359.652 640.319 359.475 639.905 359.298ZM639.815 356.606C639.466 356.606 639.193 356.708 638.995 356.911 638.823 357.088 638.737 357.315 638.737 357.591 638.737 357.859 638.818 358.079 638.979 358.251 639.133 358.412 639.39 358.571 639.752 358.727L639.889 358.794C640.303 358.617 640.586 358.423 640.737 358.212 640.859 358.045 640.92 357.833 640.92 357.575 640.92 357.265 640.806 357.02 640.577 356.841 640.379 356.684 640.125 356.606 639.815 356.606ZM639.815 356.192C640.32 356.192 640.724 356.338 641.026 356.63 641.286 356.882 641.417 357.195 641.417 357.567 641.417 357.916 641.321 358.201 641.131 358.423 640.957 358.621 640.673 358.806 640.28 358.977 640.788 359.201 641.139 359.451 641.334 359.727 641.496 359.954 641.577 360.234 641.577 360.567 641.577 361.085 641.392 361.487 641.022 361.77 640.709 362.01 640.308 362.13 639.819 362.13 639.259 362.13 638.819 361.976 638.499 361.669 638.209 361.393 638.065 361.032 638.065 360.587 638.065 360.222 638.181 359.915 638.413 359.665 638.613 359.449 638.93 359.24 639.362 359.04 638.93 358.834 638.629 358.608 638.459 358.36 638.314 358.152 638.241 357.895 638.241 357.591 638.241 357.156 638.405 356.806 638.733 356.54 639.022 356.308 639.383 356.192 639.815 356.192Z" stroke="#000000" stroke-linejoin="round" stroke-miterlimit="10" fill-rule="evenodd"/><text fill="#000000" fill-opacity="0" font-family="Arial,Arial_MSFontService,sans-serif" font-size="5.9375" x="638.065" y="361.388">8</text></g></svg>