<svg width="26" height="26" xmlns="http://www.w3.org/2000/svg" xmlns:xlink="http://www.w3.org/1999/xlink" overflow="hidden"><g transform="translate(-627 -347)"><path d="M628.5 360.5C628.5 353.873 633.873 348.5 640.5 348.5 647.128 348.5 652.5 353.873 652.5 360.5 652.5 367.127 647.128 372.5 640.5 372.5 633.873 372.5 628.5 367.127 628.5 360.5Z" stroke="#000000" stroke-width="0.333333" stroke-miterlimit="8" fill="#008000" fill-rule="evenodd"/><path d="M632.5 360.5C632.5 356.082 636.082 352.5 640.5 352.5 644.918 352.5 648.5 356.082 648.5 360.5 648.5 364.918 644.918 368.5 640.5 368.5 636.082 368.5 632.5 364.918 632.5 360.5Z" stroke="#000000" stroke-width="0.333333" stroke-miterlimit="8" fill="#FFFFFF" fill-rule="evenodd"/><path d="M639.971 358.809C639.471 358.809 639.049 359.121 638.706 359.743 638.711 360.433 638.842 360.947 639.1 361.286 639.308 361.559 639.579 361.696 639.913 361.696 640.275 361.696 640.552 361.548 640.745 361.251 640.917 360.988 641.002 360.63 641.002 360.177 641.002 359.721 640.897 359.371 640.686 359.126 640.504 358.915 640.265 358.809 639.971 358.809ZM640.096 356.192C640.695 356.192 641.13 356.442 641.401 356.942L640.92 357.177C640.756 356.809 640.476 356.626 640.081 356.626 639.185 356.626 638.721 357.497 638.69 359.239 639.052 358.658 639.505 358.368 640.049 358.368 640.513 358.368 640.883 358.553 641.159 358.923 641.401 359.248 641.522 359.664 641.522 360.169 641.522 360.809 641.349 361.311 641.002 361.673 640.713 361.977 640.35 362.13 639.913 362.13 639.358 362.13 638.928 361.881 638.624 361.384 638.337 360.92 638.194 360.276 638.194 359.45 638.194 358.278 638.388 357.417 638.776 356.868 639.096 356.417 639.536 356.192 640.096 356.192Z" stroke="#000000" stroke-linejoin="round" stroke-miterlimit="10" fill-rule="evenodd"/><text fill="#000000" fill-opacity="0" font-family="Arial,Arial_MSFontService,sans-serif" font-size="5.9375" x="638.194" y="361.388">6</text></g></svg>