<svg width="26" height="26" xmlns="http://www.w3.org/2000/svg" xmlns:xlink="http://www.w3.org/1999/xlink" overflow="hidden"><g transform="translate(-627 -347)"><path d="M628.5 360.5C628.5 353.873 633.873 348.5 640.5 348.5 647.128 348.5 652.5 353.873 652.5 360.5 652.5 367.127 647.128 372.5 640.5 372.5 633.873 372.5 628.5 367.127 628.5 360.5Z" stroke="#000000" stroke-width="0.333333" stroke-miterlimit="8" fill="#FFFFFF" fill-rule="evenodd"/><path d="M632.143 351.5 648.858 351.5 648.985 351.591C651.157 353.871 652.5 357.021 652.5 360.5 652.5 363.979 651.157 367.13 648.985 369.41L648.858 369.5 632.143 369.5 632.015 369.41C629.843 367.13 628.5 363.979 628.5 360.5 628.5 357.021 629.843 353.871 632.015 351.591Z" stroke="#000000" stroke-width="0.333333" stroke-miterlimit="8" fill="#FF66FF" fill-rule="evenodd"/><path d="M632.5 360.5C632.5 356.082 636.082 352.5 640.5 352.5 644.918 352.5 648.5 356.082 648.5 360.5 648.5 364.918 644.918 368.5 640.5 368.5 636.082 368.5 632.5 364.918 632.5 360.5Z" stroke="#000000" stroke-width="0.333333" stroke-miterlimit="8" fill="#FFFFFF" fill-rule="evenodd"/><path d="M637.188 356.208 637.599 356.208 637.599 361.598 638.677 361.598 638.677 362.024 635.95 362.024 635.95 361.598 637.102 361.598 637.102 356.751C636.764 356.983 636.372 357.183 635.927 357.352L635.837 356.888C636.28 356.739 636.73 356.513 637.188 356.208ZM642.294 356.192C642.783 356.192 643.172 356.339 643.458 356.634 643.716 356.897 643.845 357.24 643.845 357.665 643.845 358.006 643.752 358.32 643.567 358.606 643.393 358.872 643.083 359.205 642.638 359.606 641.885 360.265 641.356 360.924 641.052 361.583L643.852 361.583 643.852 362.024 640.548 362.024 640.548 361.63C640.879 360.838 641.455 360.066 642.278 359.313 642.716 358.904 643.004 358.58 643.142 358.341 643.259 358.138 643.317 357.912 643.317 357.665 643.317 357.324 643.209 357.059 642.993 356.872 642.808 356.713 642.573 356.634 642.286 356.634 641.63 356.634 641.234 357.033 641.099 357.833L640.595 357.704C640.701 357.178 640.922 356.785 641.255 356.524 641.536 356.303 641.882 356.192 642.294 356.192Z" stroke="#000000" stroke-linejoin="round" stroke-miterlimit="10" fill-rule="evenodd"/><text fill="#000000" fill-opacity="0" font-family="Arial,Arial_MSFontService,sans-serif" font-size="5.83203" x="635.837" y="361.295">12</text></g></svg>