<svg width="26" height="26" xmlns="http://www.w3.org/2000/svg" xmlns:xlink="http://www.w3.org/1999/xlink" overflow="hidden"><g transform="translate(-627 -347)"><path d="M628.5 360.5C628.5 353.873 633.873 348.5 640.5 348.5 647.128 348.5 652.5 353.873 652.5 360.5 652.5 367.127 647.128 372.5 640.5 372.5 633.873 372.5 628.5 367.127 628.5 360.5Z" stroke="#000000" stroke-width="0.333333" stroke-miterlimit="8" fill="#FFFF00" fill-rule="evenodd"/><path d="M632.5 360.5C632.5 356.082 636.082 352.5 640.5 352.5 644.918 352.5 648.5 356.082 648.5 360.5 648.5 364.918 644.918 368.5 640.5 368.5 636.082 368.5 632.5 364.918 632.5 360.5Z" stroke="#000000" stroke-width="0.333333" stroke-miterlimit="8" fill="#FFFFFF" fill-rule="evenodd"/><path d="M639.768 356.208 640.178 356.208 640.178 361.598 641.256 361.598 641.256 362.024 638.53 362.024 638.53 361.598 639.682 361.598 639.682 356.751C639.344 356.983 638.952 357.183 638.506 357.352L638.417 356.888C638.859 356.739 639.31 356.513 639.768 356.208Z" stroke="#000000" stroke-linejoin="round" stroke-miterlimit="10" fill-rule="evenodd"/><text fill="#000000" fill-opacity="0" font-family="Arial,Arial_MSFontService,sans-serif" font-size="5.81641" x="638.417" y="361.297">1</text></g></svg>