<svg width="26" height="26" xmlns="http://www.w3.org/2000/svg" xmlns:xlink="http://www.w3.org/1999/xlink" overflow="hidden"><g transform="translate(-627 -347)"><path d="M628.5 360.5C628.5 353.873 633.873 348.5 640.5 348.5 647.128 348.5 652.5 353.873 652.5 360.5 652.5 367.127 647.128 372.5 640.5 372.5 633.873 372.5 628.5 367.127 628.5 360.5Z" stroke="#000000" stroke-width="0.333333" stroke-miterlimit="8" fill="#ED7D31" fill-rule="evenodd"/><path d="M632.5 360.5C632.5 356.082 636.082 352.5 640.5 352.5 644.918 352.5 648.5 356.082 648.5 360.5 648.5 364.918 644.918 368.5 640.5 368.5 636.082 368.5 632.5 364.918 632.5 360.5Z" stroke="#000000" stroke-width="0.333333" stroke-miterlimit="8" fill="#FFFFFF" fill-rule="evenodd"/><path d="M638.448 356.29 641.233 356.29 641.233 356.731 638.87 356.731 638.799 358.251C638.794 358.365 638.779 358.589 638.752 358.923 638.872 358.727 639.04 358.575 639.256 358.466 639.449 358.369 639.655 358.321 639.874 358.321 640.355 358.321 640.745 358.509 641.042 358.884 641.307 359.222 641.44 359.651 641.44 360.169 641.44 360.815 641.252 361.319 640.877 361.681 640.57 361.98 640.193 362.13 639.745 362.13 638.958 362.13 638.424 361.774 638.143 361.063L638.631 360.856C638.827 361.416 639.198 361.696 639.745 361.696 640.125 361.696 640.42 361.545 640.631 361.243 640.819 360.975 640.913 360.625 640.913 360.192 640.913 359.708 640.801 359.338 640.577 359.083 640.381 358.864 640.122 358.755 639.799 358.755 639.539 358.755 639.31 358.834 639.112 358.993 638.94 359.134 638.812 359.321 638.729 359.556L638.311 359.489Z" stroke="#000000" stroke-linejoin="round" stroke-miterlimit="10" fill-rule="evenodd"/><text fill="#000000" fill-opacity="0" font-family="Arial,Arial_MSFontService,sans-serif" font-size="5.83984" x="638.143" y="361.4">5</text></g></svg>