<svg width="26" height="26" xmlns="http://www.w3.org/2000/svg" xmlns:xlink="http://www.w3.org/1999/xlink" overflow="hidden"><g transform="translate(-627 -347)"><path d="M628.5 360.5C628.5 353.873 633.873 348.5 640.5 348.5 647.128 348.5 652.5 353.873 652.5 360.5 652.5 367.127 647.128 372.5 640.5 372.5 633.873 372.5 628.5 367.127 628.5 360.5Z" stroke="#000000" stroke-width="0.333333" stroke-miterlimit="8" fill="#FFFFFF" fill-rule="evenodd"/><path d="M632.143 351.5 648.858 351.5 648.985 351.591C651.157 353.871 652.5 357.021 652.5 360.5 652.5 363.979 651.157 367.13 648.985 369.41L648.858 369.5 632.143 369.5 632.015 369.41C629.843 367.13 628.5 363.979 628.5 360.5 628.5 357.021 629.843 353.871 632.015 351.591Z" stroke="#000000" stroke-width="0.333333" stroke-miterlimit="8" fill="#ED7D31" fill-rule="evenodd"/><path d="M632.5 360.5C632.5 356.082 636.082 352.5 640.5 352.5 644.918 352.5 648.5 356.082 648.5 360.5 648.5 364.918 644.918 368.5 640.5 368.5 636.082 368.5 632.5 364.918 632.5 360.5Z" stroke="#000000" stroke-width="0.333333" stroke-miterlimit="8" fill="#FFFFFF" fill-rule="evenodd"/><path d="M637.188 356.208 637.599 356.208 637.599 361.598 638.677 361.598 638.677 362.024 635.95 362.024 635.95 361.598 637.102 361.598 637.102 356.751C636.764 356.983 636.372 357.183 635.927 357.352L635.837 356.888C636.28 356.739 636.73 356.513 637.188 356.208ZM642.216 356.192C642.695 356.192 643.083 356.338 643.38 356.63 643.643 356.885 643.774 357.203 643.774 357.583 643.774 357.96 643.664 358.27 643.442 358.513 643.252 358.718 642.997 358.859 642.677 358.934L642.677 358.985C643.093 359.079 643.41 359.269 643.626 359.556 643.816 359.808 643.911 360.112 643.911 360.466 643.911 360.997 643.734 361.417 643.38 361.727 643.075 361.996 642.692 362.13 642.231 362.13 641.39 362.13 640.808 361.766 640.485 361.04L640.966 360.833C641.104 361.161 641.285 361.391 641.509 361.524 641.699 361.639 641.94 361.696 642.231 361.696 642.604 361.696 642.895 361.571 643.106 361.321 643.291 361.102 643.384 360.822 643.384 360.481 643.384 360.054 643.25 359.733 642.981 359.516 642.739 359.321 642.403 359.223 641.974 359.223L641.524 359.223 641.524 358.766 641.927 358.766C642.382 358.766 642.726 358.651 642.958 358.419 643.156 358.221 643.255 357.957 643.255 357.626 643.255 357.292 643.143 357.035 642.919 356.852 642.731 356.701 642.493 356.626 642.204 356.626 641.923 356.626 641.682 356.707 641.481 356.868 641.297 357.016 641.162 357.223 641.079 357.489L640.599 357.298C640.747 356.917 640.976 356.632 641.286 356.442 641.552 356.276 641.862 356.192 642.216 356.192Z" stroke="#000000" stroke-linejoin="round" stroke-miterlimit="10" fill-rule="evenodd"/><text fill="#000000" fill-opacity="0" font-family="Arial,Arial_MSFontService,sans-serif" font-size="5.9375" x="635.837" y="361.388">13</text></g></svg>