<svg width="26" height="26" xmlns="http://www.w3.org/2000/svg" xmlns:xlink="http://www.w3.org/1999/xlink" overflow="hidden"><g transform="translate(-627 -347)"><path d="M628.5 360.5C628.5 353.873 633.873 348.5 640.5 348.5 647.128 348.5 652.5 353.873 652.5 360.5 652.5 367.127 647.128 372.5 640.5 372.5 633.873 372.5 628.5 367.127 628.5 360.5Z" stroke="#000000" stroke-width="0.333333" stroke-miterlimit="8" fill="#4472C4" fill-rule="evenodd"/><path d="M632.5 360.5C632.5 356.082 636.082 352.5 640.5 352.5 644.918 352.5 648.5 356.082 648.5 360.5 648.5 364.918 644.918 368.5 640.5 368.5 636.082 368.5 632.5 364.918 632.5 360.5Z" stroke="#000000" stroke-width="0.333333" stroke-miterlimit="8" fill="#FFFFFF" fill-rule="evenodd"/><path d="M639.874 356.192C640.363 356.192 640.751 356.339 641.038 356.634 641.295 356.897 641.424 357.24 641.424 357.665 641.424 358.006 641.332 358.32 641.147 358.606 640.972 358.872 640.663 359.205 640.217 359.606 639.465 360.265 638.936 360.924 638.631 361.583L641.432 361.583 641.432 362.024 638.127 362.024 638.127 361.63C638.458 360.838 639.035 360.066 639.858 359.313 640.295 358.904 640.583 358.58 640.721 358.341 640.838 358.138 640.897 357.912 640.897 357.665 640.897 357.324 640.789 357.059 640.573 356.872 640.388 356.713 640.152 356.634 639.866 356.634 639.209 356.634 638.814 357.033 638.678 357.833L638.174 357.704C638.281 357.178 638.501 356.785 638.834 356.524 639.116 356.303 639.462 356.192 639.874 356.192Z" stroke="#000000" stroke-linejoin="round" stroke-miterlimit="10" fill-rule="evenodd"/><text fill="#000000" fill-opacity="0" font-family="Arial,Arial_MSFontService,sans-serif" font-size="5.83203" x="638.127" y="361.295">2</text></g></svg>