<svg width="26" height="26" xmlns="http://www.w3.org/2000/svg" xmlns:xlink="http://www.w3.org/1999/xlink" overflow="hidden"><g transform="translate(-627 -347)"><path d="M628.5 360.5C628.5 353.873 633.873 348.5 640.5 348.5 647.128 348.5 652.5 353.873 652.5 360.5 652.5 367.127 647.128 372.5 640.5 372.5 633.873 372.5 628.5 367.127 628.5 360.5Z" stroke="#000000" stroke-width="0.333333" stroke-miterlimit="8" fill="#FF0000" fill-rule="evenodd"/><path d="M632.5 360.5C632.5 356.082 636.082 352.5 640.5 352.5 644.918 352.5 648.5 356.082 648.5 360.5 648.5 364.918 644.918 368.5 640.5 368.5 636.082 368.5 632.5 364.918 632.5 360.5Z" stroke="#000000" stroke-width="0.333333" stroke-miterlimit="8" fill="#FFFFFF" fill-rule="evenodd"/><path d="M639.795 356.192C640.275 356.192 640.663 356.338 640.959 356.63 641.222 356.885 641.354 357.203 641.354 357.583 641.354 357.96 641.243 358.27 641.022 358.513 640.832 358.718 640.577 358.859 640.256 358.934L640.256 358.985C640.673 359.079 640.989 359.269 641.206 359.556 641.396 359.808 641.491 360.112 641.491 360.466 641.491 360.997 641.314 361.417 640.959 361.727 640.655 361.996 640.272 362.13 639.811 362.13 638.97 362.13 638.388 361.766 638.065 361.04L638.545 360.833C638.683 361.161 638.864 361.391 639.088 361.524 639.279 361.639 639.519 361.696 639.811 361.696 640.183 361.696 640.475 361.571 640.686 361.321 640.871 361.102 640.963 360.822 640.963 360.481 640.963 360.054 640.829 359.733 640.561 359.516 640.319 359.321 639.983 359.223 639.553 359.223L639.104 359.223 639.104 358.766 639.506 358.766C639.962 358.766 640.306 358.651 640.538 358.419 640.736 358.221 640.834 357.957 640.834 357.626 640.834 357.292 640.722 357.035 640.499 356.852 640.311 356.701 640.073 356.626 639.784 356.626 639.502 356.626 639.262 356.707 639.061 356.868 638.876 357.016 638.742 357.223 638.659 357.489L638.178 357.298C638.327 356.917 638.556 356.632 638.866 356.442 639.131 356.276 639.441 356.192 639.795 356.192Z" stroke="#000000" stroke-linejoin="round" stroke-miterlimit="10" fill-rule="evenodd"/><text fill="#000000" fill-opacity="0" font-family="Arial,Arial_MSFontService,sans-serif" font-size="5.9375" x="638.065" y="361.388">3</text></g></svg>