<svg width="26" height="26" xmlns="http://www.w3.org/2000/svg" xmlns:xlink="http://www.w3.org/1999/xlink" overflow="hidden"><g transform="translate(-627 -347)"><path d="M628.5 360.5C628.5 353.873 633.873 348.5 640.5 348.5 647.128 348.5 652.5 353.873 652.5 360.5 652.5 367.127 647.128 372.5 640.5 372.5 633.873 372.5 628.5 367.127 628.5 360.5Z" stroke="#000000" stroke-width="0.333333" stroke-miterlimit="8" fill="#FFFFFF" fill-rule="evenodd"/><path d="M632.143 351.5 648.858 351.5 648.985 351.591C651.157 353.871 652.5 357.021 652.5 360.5 652.5 363.979 651.157 367.13 648.985 369.41L648.858 369.5 632.143 369.5 632.015 369.41C629.843 367.13 628.5 363.979 628.5 360.5 628.5 357.021 629.843 353.871 632.015 351.591Z" stroke="#000000" stroke-width="0.333333" stroke-miterlimit="8" fill="#FF0000" fill-rule="evenodd"/><path d="M632.5 360.5C632.5 356.082 636.082 352.5 640.5 352.5 644.918 352.5 648.5 356.082 648.5 360.5 648.5 364.918 644.918 368.5 640.5 368.5 636.082 368.5 632.5 364.918 632.5 360.5Z" stroke="#000000" stroke-width="0.333333" stroke-miterlimit="8" fill="#FFFFFF" fill-rule="evenodd"/><path d="M642.188 356.208 642.599 356.208 642.599 361.598 643.677 361.598 643.677 362.024 640.95 362.024 640.95 361.598 642.102 361.598 642.102 356.751C641.764 356.983 641.372 357.183 640.927 357.352L640.837 356.888C641.28 356.739 641.73 356.513 642.188 356.208ZM637.188 356.208 637.599 356.208 637.599 361.598 638.677 361.598 638.677 362.024 635.95 362.024 635.95 361.598 637.102 361.598 637.102 356.751C636.764 356.983 636.372 357.183 635.927 357.352L635.837 356.888C636.28 356.739 636.73 356.513 637.188 356.208Z" stroke="#000000" stroke-linejoin="round" stroke-miterlimit="10" fill-rule="evenodd"/><text fill="#000000" fill-opacity="0" font-family="Arial,Arial_MSFontService,sans-serif" font-size="5.81641" x="635.837" y="361.297">11</text></g></svg>